PathFileType	4	(X/Y/Z)	C:/Users/opensim2020/Desktop/walking_exp_matlab/subject06_walking23_straight_04.trc																																																																																																																																					
DataRate	CameraRate	NumFrames	NumMarkers	Units	OrigDataRate	OrigDataStartFrame	OrigNumFrames																																																																																																																																	
100	100	4	45	mm	100	2320	145																																																																																																																																	
Frame#	Time	LFHD			RFHD			LBHD			RBHD			C7			T10			CLAV			STRN			RBAK			LSHO			LUPA			LELB			LFRM			LWRA			LWRB			LFIN			RSHO			RUPA			RELB			RFRM			RWRA			RWRB			RFIN			LASI			RASI			LPSI			RPSI			LTHI			LKNE			LTIB			LANK			LHEE			LTOE			RTHI			RKNE			RTIB			RANK			RHEE			RTOE			*39			*40			*41			*42			*43			*44		
		X1	Y1	Z1	X2	Y2	Z2	X3	Y3	Z3	X4	Y4	Z4	X5	Y5	Z5	X6	Y6	Z6	X7	Y7	Z7	X8	Y8	Z8	X9	Y9	Z9	X10	Y10	Z10	X11	Y11	Z11	X12	Y12	Z12	X13	Y13	Z13	X14	Y14	Z14	X15	Y15	Z15	X16	Y16	Z16	X17	Y17	Z17	X18	Y18	Z18	X19	Y19	Z19	X20	Y20	Z20	X21	Y21	Z21	X22	Y22	Z22	X23	Y23	Z23	X24	Y24	Z24	X25	Y25	Z25	X26	Y26	Z26	X27	Y27	Z27	X28	Y28	Z28	X29	Y29	Z29	X30	Y30	Z30	X31	Y31	Z31	X32	Y32	Z32	X33	Y33	Z33	X34	Y34	Z34	X35	Y35	Z35	X36	Y36	Z36	X37	Y37	Z37	X38	Y38	Z38	X39	Y39	Z39	X40	Y40	Z40	X41	Y41	Z41	X42	Y42	Z42	X43	Y43	Z43	X44	Y44	Z44	X45	Y45	Z45
																																																																																																																																								
55	0.54	-69.24984	1658.12354	881.43323	-67.0896	1653.98926	1013.47913	-203.25839	1606.18896	886.51239	-199.17064	1606.78076	1015.52863	-205.39488	1449.95056	941.2738	-242.17421	1121.16797	954.10114	-95.06996	1372.98254	952.51312	-56.28706	1197.82556	950.75098	-285.6962	1280.60815	1013.87329	-138.61407	1404.21326	786.35211	-130.19395	1205.03381	708.94952	-126.35158	1092.52527	691.95428	-65.841	954.86053	673.45935	19.33476	862.02557	723.73883	-32.31028	840.62933	680.62433	31.27442	777.35333	683.07355	-158.60367	1406.64844	1108.48535	-235.3277	1220.73535	1192.34595	-248.02278	1099.58704	1209.21191	-242.28734	980.1059	1230.06543	-181.14565	840.02985	1209.22595	-242.35896	842.44574	1240.53088	-208.62569	765.64032	1247.94434	-66.43519	961.96503	850.94928	-66.79263	970.27014	1071.18982	-225.60277	988.00037	881.48102	-218.6008	986.24799	1049.40979	-147.42125	647.30353	807.63177	-161.61143	483.26416	834.91187	-245.93153	237.8511	852.35199	-283.89926	72.87115	905.83105	-325.92151	64.74014	951.44904	-144.06721	33.9598	908.27063	-25.51607	651.04242	1139.40796	28.1267	537.63715	1119.42004	-35.59398	280.85559	1110.1123	-73.46387	100.40342	1062.36755	-110.08569	81.1581	1011.34119	66.25236	42.49805	1079.08557	-167.74915	1701.04688	940.32397	NaN	NaN	NaN	NaN	NaN	NaN	NaN	NaN	NaN	NaN	NaN	NaN	NaN	NaN	NaN
56	0.55	-55.94228	1657.12549	881.93109	-53.90289	1652.77051	1013.96948	-190.08717	1605.31885	886.71222	-185.63986	1605.53955	1015.55524	-192.38608	1448.98035	941.53296	-229.38005	1120.31421	954.70129	-82.11629	1371.73291	952.43988	-43.50002	1196.59778	950.30902	-272.62054	1279.78992	1014.2077	-126.06161	1403.45056	786.58356	-116.40281	1204.6167	708.68042	-111.77151	1092.38257	691.11047	-46.49383	956.7403	672.88623	42.58507	867.83252	723.57904	-8.87435	843.90259	681.05475	57.69213	783.56342	683.33997	-145.1022	1405.38782	1108.62659	-222.95572	1219.98206	1192.38245	-236.80656	1098.90002	1209.46301	-233.72151	979.28027	1230.62671	-176.03302	837.51398	1210.47363	-237.43994	841.56879	1241.43005	-205.86235	763.80603	1249.07495	-54.45183	960.66156	850.74109	-53.48528	969.29065	1071.22217	-213.45248	986.95227	882.36932	-205.33125	985.28192	1050.26733	-138.61806	646.59717	808.1059	-154.92271	482.64264	835.28394	-242.96193	238.40128	852.90765	-283.2305	73.95135	906.52148	-325.18744	66.36572	952.31042	-143.77893	33.67207	908.42987	-13.46714	649.23645	1138.77161	39.01286	535.42542	1117.99084	-11.86853	274.84708	1108.6748	-36.24192	91.57734	1061.31506	-70.59502	70.50705	1009.79913	107.0118	42.76483	1080.25745	-154.41101	1699.89172	940.80261	NaN	NaN	NaN	NaN	NaN	NaN	NaN	NaN	NaN	NaN	NaN	NaN	NaN	NaN	NaN
57	0.56	-42.73192	1656.08582	882.45709	-40.78204	1651.49695	1014.44989	-176.86903	1604.25659	887.07745	-172.42708	1604.29907	1015.91351	-179.20888	1447.79907	941.85449	-216.50087	1119.29602	955.49615	-68.94717	1370.58032	952.45428	-30.52464	1195.34741	949.98669	-259.45514	1278.78137	1014.53406	-113.53439	1402.60828	786.85345	-102.82998	1204.13245	708.43329	-96.94566	1092.1637	690.40924	-27.55175	958.72626	673.02148	65.16965	873.9696	723.51862	14.57761	847.32971	682.16132	83.5079	790.21265	683.79529	-131.57547	1404.08398	1108.82813	-210.35559	1219.16443	1192.58997	-225.3175	1098.20154	1209.78992	-224.85739	978.5451	1231.24963	-170.58678	835.33765	1211.72766	-232.05733	840.97369	1242.48694	-202.86913	762.26233	1250.12122	-42.29249	959.30176	850.72589	-39.92541	968.11005	1071.31091	-201.1179	985.94336	883.5072	-191.92596	984.14966	1051.26428	-129.51442	646.01624	808.58289	-148.05374	482.12109	835.57861	-240.10971	239.18608	853.30969	-282.56598	75.23824	907.07593	-324.93475	68.48418	953.11713	-143.62627	33.58563	908.48108	-2.6121	646.56396	1137.86792	48.69513	532.35986	1116.63696	11.39043	269.17188	1107.09338	1.21845	84.29112	1060.51416	-30.63872	60.9055	1008.54517	147.56485	44.15781	1080.99133	-141.26596	1698.84204	941.28503	NaN	NaN	NaN	NaN	NaN	NaN	NaN	NaN	NaN	NaN	NaN	NaN	NaN	NaN	NaN
58	0.57	-29.56414	1654.90247	883.01801	-27.63817	1650.14441	1014.96777	-163.72729	1603.1366	887.49426	-159.32797	1602.94373	1016.32947	-166.16022	1446.59094	942.4165	-203.59117	1118.19543	956.40216	-55.93339	1369.23962	952.56183	-17.52382	1194.01782	949.80835	-246.13873	1277.5719	1014.92627	-101.03265	1401.68579	787.18542	-89.40214	1203.61841	708.29529	-82.7863	1091.80347	689.88568	-8.9468	960.79657	672.70465	86.81336	880.28857	723.81787	37.08921	851.16779	682.86139	108.64805	797.19293	684.43799	-117.98567	1402.74426	1109.13208	-197.65933	1218.28381	1192.87573	-213.71259	1097.50281	1210.22998	-215.70599	977.87726	1232.03198	-164.89253	833.26654	1213.10266	-226.05052	840.48267	1243.77686	-199.13852	760.94409	1251.31396	-29.94772	957.97644	850.8504	-26.43204	966.59418	1071.66821	-188.62425	984.86517	884.63568	-178.36044	982.82678	1052.3606	-120.25734	645.39954	809.01178	-141.03642	481.62384	835.71808	-237.3553	240.16667	853.43488	-281.90918	76.61864	907.39435	-324.24365	70.48358	953.54883	-143.52525	33.48025	908.47491	7.32308	643.21448	1136.83472	57.48737	528.46387	1115.02771	34.34736	263.88434	1105.55066	38.19632	78.50869	1059.77966	8.01276	53.59518	1007.53241	186.72345	47.13938	1081.17896	-128.05556	1697.65063	941.84412	NaN	NaN	NaN	NaN	NaN	NaN	NaN	NaN	NaN	NaN	NaN	NaN	NaN	NaN	NaN
